<mxfile host="Electron" modified="2024-05-23T05:04:06.377Z" agent="Mozilla/5.0 (Windows NT 10.0; Win64; x64) AppleWebKit/537.36 (KHTML, like Gecko) draw.io/24.4.6 Chrome/124.0.6367.207 Electron/30.0.6 Safari/537.36" etag="kqtP3rekm2xI1xL2nkwn" version="24.4.6" type="device">
  <diagram name="ページ1" id="VwuUmVRjfuYAp2brwE0i">
    <mxGraphModel dx="1434" dy="844" grid="1" gridSize="10" guides="1" tooltips="1" connect="1" arrows="1" fold="1" page="1" pageScale="1" pageWidth="827" pageHeight="1169" math="0" shadow="0">
      <root>
        <mxCell id="0" />
        <mxCell id="1" parent="0" />
        <mxCell id="0OAJpf0LsAHv6sBQc1vj-1" value="ブラウザー" style="swimlane;startSize=23;fontFamily=Noto Sans JP;" parent="1" vertex="1">
          <mxGeometry x="40" y="85" width="290" height="240" as="geometry">
            <mxRectangle x="40" y="40" width="90" height="30" as="alternateBounds" />
          </mxGeometry>
        </mxCell>
        <mxCell id="qHMDSA02h6suO_pA4Kt9-17" value="&lt;div&gt;HTML文書&lt;/div&gt;&lt;div&gt;オリジン：&lt;font color=&quot;#ff66ff&quot;&gt;https://aaa.example.com&lt;/font&gt;&lt;/div&gt;" style="rounded=0;whiteSpace=wrap;html=1;fontFamily=Noto Sans JP;" parent="0OAJpf0LsAHv6sBQc1vj-1" vertex="1">
          <mxGeometry x="55" y="60" width="180" height="60" as="geometry" />
        </mxCell>
        <mxCell id="qHMDSA02h6suO_pA4Kt9-15" value="JavaScript&lt;div&gt;オリジン：&lt;font color=&quot;#ff66ff&quot;&gt;https://aaa.example.com&lt;/font&gt;&lt;/div&gt;" style="rounded=0;whiteSpace=wrap;html=1;fontFamily=Noto Sans JP;" parent="0OAJpf0LsAHv6sBQc1vj-1" vertex="1">
          <mxGeometry x="55" y="140" width="180" height="60" as="geometry" />
        </mxCell>
        <mxCell id="qHMDSA02h6suO_pA4Kt9-1" value="" style="shape=image;verticalLabelPosition=bottom;labelBackgroundColor=default;verticalAlign=top;aspect=fixed;imageAspect=0;image=data:image/png,iVBORw0KGgoAAAANSUhEUgAAANsAAADbCAYAAADkg+RAAAAAAXNSR0IArs4c6QAAAARnQU1BAACxjwv8YQUAAAAJcEhZcwAAFxEAABcRAcom8z8AABWnSURBVHhe7Z15fFTV2ccnYUkICWRfIAvZCAFECISwhYSAgZCwJJkkZAHEIoIWK9YdWhdEBBdAX6RYKriDFXhrUYGyL7KpiAsKJaDIJipSfen71r7lec9z7p3pECfAue/ccWby+374fSZA/rjnuec75y7n3GsBAAAAAAAAAAAAAAAAAAAAAAAAAAAAAAAAAAAAAAAAAAAdIgp8Zt68jKF5efn5fbJq87K6T8lMSpiSFBUxJTk2CmkkXB+uE9eL68b14zpyPfXSAqAhOoX/rFmzoh6acc/wcdbyB/tlXbuyT7fO9TldMy90Smh3ITkq/EJqTCTSSLg+XCeuF9eN68d15HpyXbm+eqlBU2fRggWdx1VaZwzuk7OxR0bqkc5J8ee7JidSt9Qk6hQfR+lx0ZTeDmk0oj5cJ64X143rx3XkenJdub56qUFTRXzjtrj31lu7TaiqeKSgX5/6a1KSqENUOKVER1BKTKRMamwUcpWx1Yzrx3XkenJdub5cZ663XnrQlBA73o/PK+oqyucV9Mn+snOHhIt2wWydhn920qkQ53FWP64r15fr/NRTj3fiuuu7ADQVpk6cGF9nLZsysHfWx93SOsiOwd/GzjoRYizyKEHUlevLda61lt7Mddd3AWgK8Lfr2Krykvyc7HVdOsT/kCwOexp2FP63+LA2FBvciqKDApArhOvE9Wqsllzn/N7Z67nuGN2aEGJnh1lLht2flZH+Q4Y4sW/YQbRDIO28LU2c/CNXF8e6OdaT68t1zspI+y+uO9df3xXAl7l48WLAqhUv9x4xpGB556R4SnfoFJykyDBKigiVJ/fWkiJ6aMZ9tHD+POQK4TpxvbhuXD+uo2Nduc5cb64715/3g75LgK+yevXS0DtuvaUmv3evzWlxYhRzGNX4GzlRdBRxUk/ifI5WvPwinTl9SnwRgyvBdeJ6cd24flxHxxGO68z15rpz/Xk/6LsE+CoTJlijCvNyf5nVMe3d1Fjtyhl3Bj7U4RP69HYxVFyQRy8te47Offut3pXA1cD14rpx/biOXE/7ITrXOSaKuO5cf94P+i4BvsrEibXxpUWFM/t061JvO8/gzsAdIyG8LWV1SqdpN0+mDz/Yr3choALXjevHdeR62q7wcp253lx3rj/vB32XAF9l9uz7U6be9ItFQ3P7f2P79rXJ1j40hAb07E6zH7yfDn32qd59gApcN64f15Hr6VhfrjfXnevP+0HfJcBXmTt3Zurtt0x+tih/4DlnsuX26kFzH36IDh/6TO8+QAWuG9eP6+hMNq4715/3g75LgK/C36i/mnzjomEDB1x2ZPvs04N69wEqcN0uN7Jx3bn+GNmaAJDNXCAbsAPZzAWyATuQzVwgG7AD2cwFsgE7rpDtnxeJTvz9R/rk/H/TwfP/Q5/+zffD7eT2cru5/Y0B2YAdV8h2QfS2dae+pwWffk0LD31Dvzvs++F2cnu53dz+xoBswI4rZDv/j/+Vna96++c0fucXNHHXcZ8Pt5Pby+3m9jcGZAN2XCHbOdHZHv34KyrcUE8lm45S6ZZjPh9uJ7eX283tbwzIBuy4QrbvRGd7/OBZKtl8lMq2HqMq8Y3v6+F2cnu53dz+xoBswI6rZHtCdLoRovOVi044RnRGXw+3k9vL7YZs4KqAbMYC2YAykM1YIBtQBrIZC2QDykA2Y4FsQBnIZiyQDSgD2YwFsgFl3CFb9c7jVLvnFNW9e5bGvve1TO2e0/LfG/6utwSyAWVMl23HF1S947ieL/S/iwjRpGz8b46/7yWBbEAZM2Wr3v4F1e09QxUbD9Pg3/2Jsu6YS10nz6Du02bRoP9YSdZ1B6n6nS8v6cTeEsgGlDFLNjlyidGsctNhKnhmFaVYJ1FgQmeyBMdQi7h0ShxeQwMeXUZlb39ENbtPet0hJWQDypglG5+j8SHi4EWrKaX8RmqV3I0sAWFkaR5ClsBwahmRSLEDR9Kgp18X53JfUe1u8fsNOrQnB7IBZcySbey7X8vP7tMeoYD2GZporaPI0iaOLCGxZLEEUrOoDnTtrx4m64ZDVCMOJ71pdINsQBnTZHv/G/nZ5abp5MeCNW+jida2nRa/1uQfnkCdJtxJI1ftkWvDanaduKRDe3IgG1DGvJHtrDyM7Hn3E9Q6rYc4V4sWI5uIFE7E0or8hGzX3HI/WdcfxMgG2Xwfs2ST52BCnut+v4ZSK26ilnwoKQST8RejmhAvIqeQch9/SY5oOGeDbD6PWbLJq5Ei1nWf0IA5z1O7IRXUsl1HahGVTC3j0ikmt4R63TePRq7eK2XztlsAkA0oY5ZsMvoN7NI1H9CghSsp54FnKOc3T1PO/Qsp/+k/0qj/3EdVW49qh49ednMbsgFlTJWNIyTi87HavWe06Voi/Mk3u+WI5mWS2QLZgDKmyybCIxefk7FgtvB9OHnoCNkgW1PBHbL5YiAbUAayGQtkA8q4TTZxuChn+zvM/nf6e14SyAaUcYds1Tu/pLp9X9G4D87R+A/P0/gD38mLJN46458D2YAyZstmE6p83SfyntqI19+R07PK136s/T9f9nf4fW8JZAPKmCkbHy7yiuzSNfupzwOLqEPpDRSbP5oSS8ZS9vT5NHLlHvF7+uGlQ0f2hkA2oIxZsvGIxudno994T97Mjs0bpc/2D5Kz/yOy8unaqQ+JkW6XvAdX8473TELmQDagjFmy8b00vgjSf/ZSihlQTM2jk8kSGEGWIJHW0eQnfm6TmUP9Zi2hmt2nMDcSsvk+ZsnGD/Xhz643/5b8w+K1RaPBMdqMf575b2kll9jwEpzSNw9oVym96IIJZAPKmC7bFCGbkMrSMlQ7jLStZ+PDydD2lDnhTjlHkp9XwtO6HDu0JweyAWXMkq1un3YY2XfmsxSRPVgb3fgwkte08do2v9bUol1HyrrzMaracoRqdp30qntvkA0oY5ZscpLxzuNU/OpW+UStIF5AKtezBcjPltEplDhiHA1Z/IY4XzspH/rTsEN7ciAbUMYs2eTlfCEbj1pDnl1DGeNvp8i+wyiy12CKzCmk9JqplLdgOZWt/djrVmlzIBtQxizZbGHpKjYekjeyi17aRMNe2EBFL26kESt3k3XDZ9rvedHhoy2QDShjtmwsEh8i8gOA5FStD/8mP8e9/622zGYHZpBAtiaC6bJx9EPKhvHGEc0WyAaUcYtsPhjIBpSBbMYC2YAybpGNDyPf+VKbliXO03hqFs+FlOvaGv6ulwSyAWXcIRufn/Hsf55VMm7/t/JiCU8+xno2yNakMFc2XmJzSj6urnj5dsqbv5z6P7qUBj75Mg1/ZQtVbj7itcJBNqCMabLxoaP+CISilzdT15umU1j3PApM7EJtuvSlTuOn0XXPrpHvbtOW43jXISVkA8qYJZs21/E4Fb20UYrW9pr+ZAkIJ357Db/RpnVSF0opm0hDl66Tj0jAdC3I5vOYJVvdPu3FGvyI8ZBO2drk46BIbeY/x7+1fP5/r3uepKptx6Sc3jS6QTagjFmy/fSVUSH/XmLDf/cLIv+IBMq84W4atZqX2IjR0IvO3yAbUMY02fT1bPyyQ36hBr9tVFs8yuvZePGoOJwUP3e+8V75LgA5qwSyAV/GLNn4Uj8fRuYvWE7xQ8dQ85gUsjQTo1uLtnIhqZ9IcGZv6vvQYu3WAD8WAYeRwJcxSzbbshl+4E/2ffMprOcgsrQS52wtQsUnP3+kN3WedA8VvbJFW8/mRW8d5UA2oIxZsmmX/rWRquS1nZQ94ym5pq1j7VTKGHubvHDCVyorNh3WJiXvxKV/fZcAX8U02WzRhavaUk+Vm/9KlZtExGfV1vpL/t/bAtmAMqbLxg/yEYeIfC+Np2rZYru35q3zIyEbUMZ82XwzkA0oA9mMBbIBZSCbsUA2oAxkMxbIBpSBbMYC2YAykM1YIBtQBrIZC2QDykA2Y4FsQBnIZiyQDSgD2YwFsgFlIJuxQDagDGQzFsgGlIFsxgLZgDKQzVggG1AGshkLZAPKQDZjgWxAGchmLJANKAPZjAWyAWUgm7FANqAMZDMWyAaUgWzGAtmAMpDNWCAbUAayGQtkA8pANmOBbEAZyGYskA0oA9mMBbIBZSCbsUA2oAxkMxbIBpSBbMYC2YAyP4ts/OYaT46zbW4QyAaUcatsoiPziw9r3jkhXyPlkRHbJl/O6Gz7HQLZgDLuks0mme0l9VVbj3pkbNtavfPLy747DrIBZdwhG3da7sCVW45Q6Zr9NHz5Nhr2wgaRjTTsRQ+J3JZNVPzqNip9cz+N2XbM/sXgLJANKGO2bNU7tXdrl6/7hPLmL6fMiXdTWsUkSrHeRKkVIpWTPSO8LdZJlCaSdcccId1WqtomRjoe3ZyMcJANKGOqbKKT1uw6SZWbj1Dh0nWUIiTzj0wiv8AI8guN1xLmIeFtaRNLfq0iqG3X/pR151wauXqvHN2qxbmco2gcyAaUMVM2HtHq9p6Wo1q/R/5AUf2Hk6VlKFksAdqnp6V5G7L4BQn5Eql9YRUNWrhSvve7ds+pS0TjQDagjOmy7RGyrT9I/ecspejcErIEhAnZWpFFjG6WwHDPCm9bs2CytImj6AElNHDeq7pspy8RjQPZgDJmyqYdRp6gqi31VPTSJupYeyu1iEsn/+Bo8o9I9LyIw0l/IVpwp96U+Yu75IUT7TbFyUtE40A2oIypsonIK5E7jlPFhkM06OnXqdOEOyhBHKLF5o+m2IIyivOQxA4qFZ+llDB0DHW9+bdU+NzbVLHxsNx2jmObOJANKGO2bBzbPTbuvMXLt1HeghXiHG4J9X90qcgyz8js5+QnXzEtXrGdqsV2a4ePzu+1QTagjDtk49hGuKptx6hi02Gy/uVTkc/IusFDom8LfyHwJX95U/syM0kgG1DGXbJxWDg+h+MRo27fGarb63nhbeNt1O6tNd4WyAaUcads9nBH9uQ42+YGgWxAmZ9FNh8IZAPKQDZjgWxAGchmLJANKON22ZydI3linG27QyAbUMadsvHUp7Hvf0PjD3wnct5D8x2Nfe9r7YqkkzbYAtmAMm6RTYwUtvVs5Ws/ptF/3k+j33hffHpQeHs4a/ZT+bqD2kLSy4xwkA0o4w7ZeJTgG9qFz62VU6ESR15PCcPGUEJRDSUMr/WMDKuW25M06nrqccdcKlmxQ267djP+p9JBNqCM2bLxejCeNVLy2k7qOuU3FJTWnSwt2sqlLHKGfbMQz4i/2Bb/1mQJCKXQHnnU8+7HadTqfXL7eaqZY5s4kA0oY6ZsPCLI9Wzi0LHvrCUUkzdSLl+RnVsua+FlNp4SfYmN+CJoHp1C8UXVVLBwlZzxjyU2wCWYOrKxbPvOUOlbByh7xgIK6zlIdGjRqZu1IUtwjEg0WVp7SHhbgiK1RaRt21H0gGIa+OQrkA24DrNl4yuQPLl3yOI/UYr1RmrZriP5B8eSX3gC+cskekgSyC+0vVzPFpLZmzIn3iXX4NXwYSTWswFXYKpsHBZOdFie6c/LWOKHjaHwngVaeg2m8OwhnhHeFn27OtbdSoV/eIsqt9RrF0eczP6HbEAZ02Xbdkxejazde0ZeYs9/6jXqJ87f+j78e+rHET97RMS2yG0SP7NoVZuPOD18tAWyAWVMl80WMULIVc9ilPCK8IjmrB16IBtQxm2yifBldPtaNlsarCf72eKwTTW7T0E24HrcKZsvBbIBZSCbsUA2oAxkMxbIBpSBbMYC2YAybpWNr0jylT59vqEnRj7bX2yj0+13CGQDyrhTNu7E8mrku2flmjFPTN2+r+SsF2cPZnUMZAPKuEM2loxvbFdtrafRb7xHRS9vlm+1GbpsvcdEbs/zf5EPaC1b+5GUjUe6hm2xBbIBZdwhG0/XYuH4acjZ986jtKoplDC8jhJHjKOkkeM9IgnFdeLzevl49AFzl8mFpPJemy0N2gTZgDKmyiY6KYs2ZttRKnl9F3W/fTZFZA+hwHYZchlL89g0ahGb7hFpHpMiPtOodcq11P66Cuo1fT6NXLUb69mA6zBbttq9p8m6/iANeOwFii0oJUtILFlattU+PS281CYwnJpFdqC4IeVyHqec14klNsAVmCmbtnj0DJW9/RHlPPAMReQUamvGmof8dD2ZJ8S2ni0kTm5r7mMvau9nE18YjqJxIBtQxmzZanefkstrChatls/4kCuiLf7aCxEtQR4U3p5AkQB5OJlcfiNdt+QtObLV7MF6NuACzJSNI++rifAVvl73PCHXiwWndKfgjGz50kGPCW9PRi/5mVhcR/w6q7K3Dmj33fi806FNHMgGlDFbNg7Lxp8jV++hwWKEy5+/Qp4P5T/1Rw8Kb4+WocvWUembH/z7cXacBm2CbEAZd8gmo18sGffBOfkgVE8OP0iWD38vt8wGsgFl3CabiO3mNj/Tw6PD07b00bixQDagjDtl86VANqAMZDMWyAaUgWzGAtmAMpDNWCAbUAayGQtkA8pANmOBbEAZyGYskA0oA9mMBbIBZSCbsUA2oAxkMxbIBpSBbMYC2YAykM1YIBtQBrIZC2QDykA2Y4FsQBnIZiyQDSgD2YwFsgFlXClbieh8ZaITVonO6OvhdnJ7IRu4alwl22OfnKWiTfU0astRqth2zOfD7eT2crshG7gqXCXbk+Ib3iZazY7PfT424bjdkA1cFa6Q7fsf/0Uv1H9LU/eeoGnvnqS73j/l8+F2cnu53dz+xoBswI4rZPvHvy7Sh+f+TmtPfk/rT39PG0//4PPhdnJ7ud3c/saAbMCOK2RjuLtxn2tqEX8uC2QDdlwlG3AOZAN2IJu5QDZgB7KZC2QDdiCbuUA2YAeymQtkA3Ygm7lANmAHspkLZAN2riRbbq8e9PjsWXT8i8/17gNU4Lpx/biOkK2JczUj25yZD9JfDx/Suw9QgevG9cPIBhqVLTk6gpIiw6h7x1SqGlVCD06/lxbOn4cohuvG9eM6cj25rpCtidKYbI5Ji4tG/p9pWFPI1gS5kmz8TZwQ3pZig1tRdFAAohiuG9fPNqLZAtmaIHPnzky97eZJS4bn5Z5vbGRDXB+bbFx3rj/vB32XAF9l5szpyVMn3fD0df37nuXDHcjmnnCdud5cd64/7wd9lwBf5de/nhxdOar4tuwumQdSYiJ/criDmBOuM9eb68715/2g7xLgq1it1laFubn9BmT1eL57x9QfOyfFU3pclEi0OMxBXB6uq6gv11nU+59cd64/7wd9lwAfxm/JkjkhkyZMmDC8IH97t7SU88lR4RdSoiMupMZEIi4O15Xry3UeXpC3g+vO9ef9oO0O4PMsXrw4cWxVeUlWp/RJSRGhU5KjIqYkx0Yhro6oK9eX61xXWTaC667vAgAAAAAAAAAAAAAAAAAAAAAAAAAAAAAAAAAAAAAAAABAU8Ji+T//q7XfLJu8UQAAAABJRU5ErkJggg==;fontFamily=Noto Sans JP;" parent="1" vertex="1">
          <mxGeometry x="440" y="70" width="109" height="109" as="geometry" />
        </mxCell>
        <mxCell id="qHMDSA02h6suO_pA4Kt9-2" value="" style="shape=image;verticalLabelPosition=bottom;labelBackgroundColor=default;verticalAlign=top;aspect=fixed;imageAspect=0;image=data:image/png,iVBORw0KGgoAAAANSUhEUgAAANsAAADbCAYAAADkg+RAAAAAAXNSR0IArs4c6QAAAARnQU1BAACxjwv8YQUAAAAJcEhZcwAAFxEAABcRAcom8z8AABWnSURBVHhe7Z15fFTV2ccnYUkICWRfIAvZCAFECISwhYSAgZCwJJkkZAHEIoIWK9YdWhdEBBdAX6RYKriDFXhrUYGyL7KpiAsKJaDIJipSfen71r7lec9z7p3pECfAue/ccWby+374fSZA/rjnuec75y7n3GsBAAAAAAAAAAAAAAAAAAAAAAAAAAAAAAAAAAAAAAAAAAAdIgp8Zt68jKF5efn5fbJq87K6T8lMSpiSFBUxJTk2CmkkXB+uE9eL68b14zpyPfXSAqAhOoX/rFmzoh6acc/wcdbyB/tlXbuyT7fO9TldMy90Smh3ITkq/EJqTCTSSLg+XCeuF9eN68d15HpyXbm+eqlBU2fRggWdx1VaZwzuk7OxR0bqkc5J8ee7JidSt9Qk6hQfR+lx0ZTeDmk0oj5cJ64X143rx3XkenJdub56qUFTRXzjtrj31lu7TaiqeKSgX5/6a1KSqENUOKVER1BKTKRMamwUcpWx1Yzrx3XkenJdub5cZ663XnrQlBA73o/PK+oqyucV9Mn+snOHhIt2wWydhn920qkQ53FWP64r15fr/NRTj3fiuuu7ADQVpk6cGF9nLZsysHfWx93SOsiOwd/GzjoRYizyKEHUlevLda61lt7Mddd3AWgK8Lfr2Krykvyc7HVdOsT/kCwOexp2FP63+LA2FBvciqKDApArhOvE9Wqsllzn/N7Z67nuGN2aEGJnh1lLht2flZH+Q4Y4sW/YQbRDIO28LU2c/CNXF8e6OdaT68t1zspI+y+uO9df3xXAl7l48WLAqhUv9x4xpGB556R4SnfoFJykyDBKigiVJ/fWkiJ6aMZ9tHD+POQK4TpxvbhuXD+uo2Nduc5cb64715/3g75LgK+yevXS0DtuvaUmv3evzWlxYhRzGNX4GzlRdBRxUk/ifI5WvPwinTl9SnwRgyvBdeJ6cd24flxHxxGO68z15rpz/Xk/6LsE+CoTJlijCvNyf5nVMe3d1Fjtyhl3Bj7U4RP69HYxVFyQRy8te47Offut3pXA1cD14rpx/biOXE/7ITrXOSaKuO5cf94P+i4BvsrEibXxpUWFM/t061JvO8/gzsAdIyG8LWV1SqdpN0+mDz/Yr3choALXjevHdeR62q7wcp253lx3rj/vB32XAF9l9uz7U6be9ItFQ3P7f2P79rXJ1j40hAb07E6zH7yfDn32qd59gApcN64f15Hr6VhfrjfXnevP+0HfJcBXmTt3Zurtt0x+tih/4DlnsuX26kFzH36IDh/6TO8+QAWuG9eP6+hMNq4715/3g75LgK/C36i/mnzjomEDB1x2ZPvs04N69wEqcN0uN7Jx3bn+GNmaAJDNXCAbsAPZzAWyATuQzVwgG7AD2cwFsgE7rpDtnxeJTvz9R/rk/H/TwfP/Q5/+zffD7eT2cru5/Y0B2YAdV8h2QfS2dae+pwWffk0LD31Dvzvs++F2cnu53dz+xoBswI4rZDv/j/+Vna96++c0fucXNHHXcZ8Pt5Pby+3m9jcGZAN2XCHbOdHZHv34KyrcUE8lm45S6ZZjPh9uJ7eX283tbwzIBuy4QrbvRGd7/OBZKtl8lMq2HqMq8Y3v6+F2cnu53dz+xoBswI6rZHtCdLoRovOVi044RnRGXw+3k9vL7YZs4KqAbMYC2YAykM1YIBtQBrIZC2QDykA2Y4FsQBnIZiyQDSgD2YwFsgFl3CFb9c7jVLvnFNW9e5bGvve1TO2e0/LfG/6utwSyAWVMl23HF1S947ieL/S/iwjRpGz8b46/7yWBbEAZM2Wr3v4F1e09QxUbD9Pg3/2Jsu6YS10nz6Du02bRoP9YSdZ1B6n6nS8v6cTeEsgGlDFLNjlyidGsctNhKnhmFaVYJ1FgQmeyBMdQi7h0ShxeQwMeXUZlb39ENbtPet0hJWQDypglG5+j8SHi4EWrKaX8RmqV3I0sAWFkaR5ClsBwahmRSLEDR9Kgp18X53JfUe1u8fsNOrQnB7IBZcySbey7X8vP7tMeoYD2GZporaPI0iaOLCGxZLEEUrOoDnTtrx4m64ZDVCMOJ71pdINsQBnTZHv/G/nZ5abp5MeCNW+jida2nRa/1uQfnkCdJtxJI1ftkWvDanaduKRDe3IgG1DGvJHtrDyM7Hn3E9Q6rYc4V4sWI5uIFE7E0or8hGzX3HI/WdcfxMgG2Xwfs2ST52BCnut+v4ZSK26ilnwoKQST8RejmhAvIqeQch9/SY5oOGeDbD6PWbLJq5Ei1nWf0IA5z1O7IRXUsl1HahGVTC3j0ikmt4R63TePRq7eK2XztlsAkA0oY5ZsMvoN7NI1H9CghSsp54FnKOc3T1PO/Qsp/+k/0qj/3EdVW49qh49ednMbsgFlTJWNIyTi87HavWe06Voi/Mk3u+WI5mWS2QLZgDKmyybCIxefk7FgtvB9OHnoCNkgW1PBHbL5YiAbUAayGQtkA8q4TTZxuChn+zvM/nf6e14SyAaUcYds1Tu/pLp9X9G4D87R+A/P0/gD38mLJN46458D2YAyZstmE6p83SfyntqI19+R07PK136s/T9f9nf4fW8JZAPKmCkbHy7yiuzSNfupzwOLqEPpDRSbP5oSS8ZS9vT5NHLlHvF7+uGlQ0f2hkA2oIxZsvGIxudno994T97Mjs0bpc/2D5Kz/yOy8unaqQ+JkW6XvAdX8473TELmQDagjFmy8b00vgjSf/ZSihlQTM2jk8kSGEGWIJHW0eQnfm6TmUP9Zi2hmt2nMDcSsvk+ZsnGD/Xhz643/5b8w+K1RaPBMdqMf575b2kll9jwEpzSNw9oVym96IIJZAPKmC7bFCGbkMrSMlQ7jLStZ+PDydD2lDnhTjlHkp9XwtO6HDu0JweyAWXMkq1un3YY2XfmsxSRPVgb3fgwkte08do2v9bUol1HyrrzMaracoRqdp30qntvkA0oY5ZscpLxzuNU/OpW+UStIF5AKtezBcjPltEplDhiHA1Z/IY4XzspH/rTsEN7ciAbUMYs2eTlfCEbj1pDnl1DGeNvp8i+wyiy12CKzCmk9JqplLdgOZWt/djrVmlzIBtQxizZbGHpKjYekjeyi17aRMNe2EBFL26kESt3k3XDZ9rvedHhoy2QDShjtmwsEh8i8gOA5FStD/8mP8e9/622zGYHZpBAtiaC6bJx9EPKhvHGEc0WyAaUcYtsPhjIBpSBbMYC2YAybpGNDyPf+VKbliXO03hqFs+FlOvaGv6ulwSyAWXcIRufn/Hsf55VMm7/t/JiCU8+xno2yNakMFc2XmJzSj6urnj5dsqbv5z6P7qUBj75Mg1/ZQtVbj7itcJBNqCMabLxoaP+CISilzdT15umU1j3PApM7EJtuvSlTuOn0XXPrpHvbtOW43jXISVkA8qYJZs21/E4Fb20UYrW9pr+ZAkIJ357Db/RpnVSF0opm0hDl66Tj0jAdC3I5vOYJVvdPu3FGvyI8ZBO2drk46BIbeY/x7+1fP5/r3uepKptx6Sc3jS6QTagjFmy/fSVUSH/XmLDf/cLIv+IBMq84W4atZqX2IjR0IvO3yAbUMY02fT1bPyyQ36hBr9tVFs8yuvZePGoOJwUP3e+8V75LgA5qwSyAV/GLNn4Uj8fRuYvWE7xQ8dQ85gUsjQTo1uLtnIhqZ9IcGZv6vvQYu3WAD8WAYeRwJcxSzbbshl+4E/2ffMprOcgsrQS52wtQsUnP3+kN3WedA8VvbJFW8/mRW8d5UA2oIxZsmmX/rWRquS1nZQ94ym5pq1j7VTKGHubvHDCVyorNh3WJiXvxKV/fZcAX8U02WzRhavaUk+Vm/9KlZtExGfV1vpL/t/bAtmAMqbLxg/yEYeIfC+Np2rZYru35q3zIyEbUMZ82XwzkA0oA9mMBbIBZSCbsUA2oAxkMxbIBpSBbMYC2YAykM1YIBtQBrIZC2QDykA2Y4FsQBnIZiyQDSgD2YwFsgFlIJuxQDagDGQzFsgGlIFsxgLZgDKQzVggG1AGshkLZAPKQDZjgWxAGchmLJANKAPZjAWyAWUgm7FANqAMZDMWyAaUgWzGAtmAMpDNWCAbUAayGQtkA8pANmOBbEAZyGYskA0oA9mMBbIBZSCbsUA2oAxkMxbIBpSBbMYC2YAyP4ts/OYaT46zbW4QyAaUcatsoiPziw9r3jkhXyPlkRHbJl/O6Gz7HQLZgDLuks0mme0l9VVbj3pkbNtavfPLy747DrIBZdwhG3da7sCVW45Q6Zr9NHz5Nhr2wgaRjTTsRQ+J3JZNVPzqNip9cz+N2XbM/sXgLJANKGO2bNU7tXdrl6/7hPLmL6fMiXdTWsUkSrHeRKkVIpWTPSO8LdZJlCaSdcccId1WqtomRjoe3ZyMcJANKGOqbKKT1uw6SZWbj1Dh0nWUIiTzj0wiv8AI8guN1xLmIeFtaRNLfq0iqG3X/pR151wauXqvHN2qxbmco2gcyAaUMVM2HtHq9p6Wo1q/R/5AUf2Hk6VlKFksAdqnp6V5G7L4BQn5Eql9YRUNWrhSvve7ds+pS0TjQDagjOmy7RGyrT9I/ecspejcErIEhAnZWpFFjG6WwHDPCm9bs2CytImj6AElNHDeq7pspy8RjQPZgDJmyqYdRp6gqi31VPTSJupYeyu1iEsn/+Bo8o9I9LyIw0l/IVpwp96U+Yu75IUT7TbFyUtE40A2oIypsonIK5E7jlPFhkM06OnXqdOEOyhBHKLF5o+m2IIyivOQxA4qFZ+llDB0DHW9+bdU+NzbVLHxsNx2jmObOJANKGO2bBzbPTbuvMXLt1HeghXiHG4J9X90qcgyz8js5+QnXzEtXrGdqsV2a4ePzu+1QTagjDtk49hGuKptx6hi02Gy/uVTkc/IusFDom8LfyHwJX95U/syM0kgG1DGXbJxWDg+h+MRo27fGarb63nhbeNt1O6tNd4WyAaUcads9nBH9uQ42+YGgWxAmZ9FNh8IZAPKQDZjgWxAGchmLJANKON22ZydI3linG27QyAbUMadsvHUp7Hvf0PjD3wnct5D8x2Nfe9r7YqkkzbYAtmAMm6RTYwUtvVs5Ws/ptF/3k+j33hffHpQeHs4a/ZT+bqD2kLSy4xwkA0o4w7ZeJTgG9qFz62VU6ESR15PCcPGUEJRDSUMr/WMDKuW25M06nrqccdcKlmxQ267djP+p9JBNqCM2bLxejCeNVLy2k7qOuU3FJTWnSwt2sqlLHKGfbMQz4i/2Bb/1mQJCKXQHnnU8+7HadTqfXL7eaqZY5s4kA0oY6ZsPCLI9Wzi0LHvrCUUkzdSLl+RnVsua+FlNp4SfYmN+CJoHp1C8UXVVLBwlZzxjyU2wCWYOrKxbPvOUOlbByh7xgIK6zlIdGjRqZu1IUtwjEg0WVp7SHhbgiK1RaRt21H0gGIa+OQrkA24DrNl4yuQPLl3yOI/UYr1RmrZriP5B8eSX3gC+cskekgSyC+0vVzPFpLZmzIn3iXX4NXwYSTWswFXYKpsHBZOdFie6c/LWOKHjaHwngVaeg2m8OwhnhHeFn27OtbdSoV/eIsqt9RrF0eczP6HbEAZ02Xbdkxejazde0ZeYs9/6jXqJ87f+j78e+rHET97RMS2yG0SP7NoVZuPOD18tAWyAWVMl80WMULIVc9ilPCK8IjmrB16IBtQxm2yifBldPtaNlsarCf72eKwTTW7T0E24HrcKZsvBbIBZSCbsUA2oAxkMxbIBpSBbMYC2YAybpWNr0jylT59vqEnRj7bX2yj0+13CGQDyrhTNu7E8mrku2flmjFPTN2+r+SsF2cPZnUMZAPKuEM2loxvbFdtrafRb7xHRS9vlm+1GbpsvcdEbs/zf5EPaC1b+5GUjUe6hm2xBbIBZdwhG0/XYuH4acjZ986jtKoplDC8jhJHjKOkkeM9IgnFdeLzevl49AFzl8mFpPJemy0N2gTZgDKmyiY6KYs2ZttRKnl9F3W/fTZFZA+hwHYZchlL89g0ahGb7hFpHpMiPtOodcq11P66Cuo1fT6NXLUb69mA6zBbttq9p8m6/iANeOwFii0oJUtILFlattU+PS281CYwnJpFdqC4IeVyHqec14klNsAVmCmbtnj0DJW9/RHlPPAMReQUamvGmof8dD2ZJ8S2ni0kTm5r7mMvau9nE18YjqJxIBtQxmzZanefkstrChatls/4kCuiLf7aCxEtQR4U3p5AkQB5OJlcfiNdt+QtObLV7MF6NuACzJSNI++rifAVvl73PCHXiwWndKfgjGz50kGPCW9PRi/5mVhcR/w6q7K3Dmj33fi806FNHMgGlDFbNg7Lxp8jV++hwWKEy5+/Qp4P5T/1Rw8Kb4+WocvWUembH/z7cXacBm2CbEAZd8gmo18sGffBOfkgVE8OP0iWD38vt8wGsgFl3CabiO3mNj/Tw6PD07b00bixQDagjDtl86VANqAMZDMWyAaUgWzGAtmAMpDNWCAbUAayGQtkA8pANmOBbEAZyGYskA0oA9mMBbIBZSCbsUA2oAxkMxbIBpSBbMYC2YAykM1YIBtQBrIZC2QDykA2Y4FsQBnIZiyQDSgD2YwFsgFlXClbieh8ZaITVonO6OvhdnJ7IRu4alwl22OfnKWiTfU0astRqth2zOfD7eT2crshG7gqXCXbk+Ib3iZazY7PfT424bjdkA1cFa6Q7fsf/0Uv1H9LU/eeoGnvnqS73j/l8+F2cnu53dz+xoBswI4rZPvHvy7Sh+f+TmtPfk/rT39PG0//4PPhdnJ7ud3c/saAbMCOK2RjuLtxn2tqEX8uC2QDdlwlG3AOZAN2IJu5QDZgB7KZC2QDdiCbuUA2YAeymQtkA3Ygm7lANmAHspkLZAN2riRbbq8e9PjsWXT8i8/17gNU4Lpx/biOkK2JczUj25yZD9JfDx/Suw9QgevG9cPIBhqVLTk6gpIiw6h7x1SqGlVCD06/lxbOn4cohuvG9eM6cj25rpCtidKYbI5Ji4tG/p9pWFPI1gS5kmz8TZwQ3pZig1tRdFAAohiuG9fPNqLZAtmaIHPnzky97eZJS4bn5Z5vbGRDXB+bbFx3rj/vB32XAF9l5szpyVMn3fD0df37nuXDHcjmnnCdud5cd64/7wd9lwBf5de/nhxdOar4tuwumQdSYiJ/criDmBOuM9eb68715/2g7xLgq1it1laFubn9BmT1eL57x9QfOyfFU3pclEi0OMxBXB6uq6gv11nU+59cd64/7wd9lwAfxm/JkjkhkyZMmDC8IH97t7SU88lR4RdSoiMupMZEIi4O15Xry3UeXpC3g+vO9ef9oO0O4PMsXrw4cWxVeUlWp/RJSRGhU5KjIqYkx0Yhro6oK9eX61xXWTaC667vAgAAAAAAAAAAAAAAAAAAAAAAAAAAAAAAAAAAAAAAAABAU8Ji+T//q7XfLJu8UQAAAABJRU5ErkJggg==;fontFamily=Noto Sans JP;" parent="1" vertex="1">
          <mxGeometry x="440" y="260" width="109" height="109" as="geometry" />
        </mxCell>
        <mxCell id="qHMDSA02h6suO_pA4Kt9-3" value="&lt;font color=&quot;#ff66ff&quot;&gt;https://aaa.example.com&lt;/font&gt;" style="text;html=1;align=center;verticalAlign=middle;whiteSpace=wrap;rounded=0;fontFamily=Noto Sans JP;" parent="1" vertex="1">
          <mxGeometry x="464.5" y="170" width="60" height="30" as="geometry" />
        </mxCell>
        <mxCell id="qHMDSA02h6suO_pA4Kt9-4" value="&lt;font color=&quot;#66ffff&quot;&gt;https://bbb.example.net&lt;/font&gt;" style="text;html=1;align=center;verticalAlign=middle;whiteSpace=wrap;rounded=0;fontFamily=Noto Sans JP;" parent="1" vertex="1">
          <mxGeometry x="464.5" y="360" width="60" height="30" as="geometry" />
        </mxCell>
        <mxCell id="qHMDSA02h6suO_pA4Kt9-19" value="" style="endArrow=classic;html=1;rounded=0;entryX=1;entryY=0.5;entryDx=0;entryDy=0;exitX=0;exitY=0.5;exitDx=0;exitDy=0;fontFamily=Noto Sans JP;" parent="1" source="qHMDSA02h6suO_pA4Kt9-1" target="qHMDSA02h6suO_pA4Kt9-17" edge="1">
          <mxGeometry width="50" height="50" relative="1" as="geometry">
            <mxPoint x="410" y="190" as="sourcePoint" />
            <mxPoint x="660" y="410" as="targetPoint" />
          </mxGeometry>
        </mxCell>
        <mxCell id="qHMDSA02h6suO_pA4Kt9-20" value="" style="endArrow=classic;html=1;rounded=0;entryX=1;entryY=0.25;entryDx=0;entryDy=0;exitX=0;exitY=0.5;exitDx=0;exitDy=0;fontFamily=Noto Sans JP;" parent="1" source="qHMDSA02h6suO_pA4Kt9-1" target="qHMDSA02h6suO_pA4Kt9-15" edge="1">
          <mxGeometry width="50" height="50" relative="1" as="geometry">
            <mxPoint x="410" y="190" as="sourcePoint" />
            <mxPoint x="285" y="220" as="targetPoint" />
          </mxGeometry>
        </mxCell>
        <mxCell id="qHMDSA02h6suO_pA4Kt9-21" value="&lt;font&gt;リソースA&lt;/font&gt;" style="text;html=1;align=center;verticalAlign=middle;whiteSpace=wrap;rounded=0;fontFamily=Noto Sans JP;" parent="1" vertex="1">
          <mxGeometry x="464.5" y="50" width="60" height="30" as="geometry" />
        </mxCell>
        <mxCell id="qHMDSA02h6suO_pA4Kt9-22" value="&lt;font&gt;リソースB&lt;/font&gt;" style="text;html=1;align=center;verticalAlign=middle;whiteSpace=wrap;rounded=0;fontFamily=Noto Sans JP;" parent="1" vertex="1">
          <mxGeometry x="464.5" y="240" width="60" height="30" as="geometry" />
        </mxCell>
        <mxCell id="qHMDSA02h6suO_pA4Kt9-30" value="" style="endArrow=classic;html=1;rounded=0;exitX=1;exitY=0.75;exitDx=0;exitDy=0;dashed=1;entryX=0;entryY=0.5;entryDx=0;entryDy=0;fontFamily=Noto Sans JP;" parent="1" source="qHMDSA02h6suO_pA4Kt9-15" target="qHMDSA02h6suO_pA4Kt9-2" edge="1">
          <mxGeometry width="50" height="50" relative="1" as="geometry">
            <mxPoint x="275" y="270" as="sourcePoint" />
            <mxPoint x="440" y="315" as="targetPoint" />
          </mxGeometry>
        </mxCell>
        <mxCell id="qHMDSA02h6suO_pA4Kt9-25" value="" style="shape=cross;whiteSpace=wrap;html=1;rotation=-45;fillColor=#FF66FF;strokeColor=none;fontFamily=Noto Sans JP;fontColor=#FF66FF;" parent="1" vertex="1">
          <mxGeometry x="374" y="282" width="40" height="40" as="geometry" />
        </mxCell>
        <mxCell id="qHMDSA02h6suO_pA4Kt9-31" value="&lt;font&gt;オリジンが異なるリソースは取得できない&lt;/font&gt;" style="rounded=1;whiteSpace=wrap;html=1;fillColor=#dae8fc;strokeColor=#6c8ebf;fontFamily=Noto Sans JP;fontColor=#000000;" parent="1" vertex="1">
          <mxGeometry x="140" y="340" width="270" height="60" as="geometry" />
        </mxCell>
      </root>
    </mxGraphModel>
  </diagram>
</mxfile>
